<?xml version="1.0" standalone="no"?><!DOCTYPE svg PUBLIC "-//W3C//DTD SVG 1.1//EN" "http://www.w3.org/Graphics/SVG/1.1/DTD/svg11.dtd"><svg t="1681464521915" class="icon" viewBox="0 0 1024 1024" version="1.1" xmlns="http://www.w3.org/2000/svg" p-id="3643" xmlns:xlink="http://www.w3.org/1999/xlink" width="25" height="25"><path d="M768.460524 509.850889c13.304018-31.008595-1.43274-63.552269-15.862483-82.38257-1.125725-73.990806-23.128523-132.835499-65.394363-174.896662C633.373576 198.843894 562.862283 189.735759 538.301019 188.303018l0-0.102339-1.330402 0c-4.298221-0.204677-6.856686-0.204677-7.470718-0.204677l-6.754347 0.102339-6.754347-0.102339c-0.614032 0-2.865481 0-7.061363 0.204677l-1.330402 0 0 0.102339c-25.584649 1.535079-95.174895 10.643214-149.004997 64.268639-42.26584 42.061163-64.268639 100.905856-65.394363 174.896662-14.327404 18.830302-29.1665 51.373976-15.862483 82.38257-20.672397 26.812712-62.426544 90.671997-48.610833 155.452329 1.637418 8.289426 11.154907 47.587448 42.163502 52.295023 17.4999 2.660804 32.543674-6.959025 45.028983-20.672397 4.707575 10.336198 10.336198 21.286428 16.78353 31.213272-3.991205 2.353788-8.084749 5.014591-12.178293 7.880072-29.575854 20.467719-43.596242 41.856486-41.447132 63.347591 0.921047 10.131521 6.140316 24.868279 25.277633 37.558265 13.09934 8.698781 31.315611 15.760144 55.876874 21.593444l0.71637 0.204677c1.125725 0.204677 13.201679 2.558465 31.110933 2.558465 24.561263 0 59.970418-4.502898 92.923446-25.072956l2.865481-1.842095 6.037977 1.228063c10.131521 2.046772 20.263042 2.967819 30.496902 2.967819 10.131521 0 20.467719-1.023386 30.906256-2.967819l4.093544-0.818709 2.865481 1.842095c31.724965 20.467719 64.88267 25.277633 88.829902 25.277633 19.239656 0 32.543674-3.070158 34.488107-3.581851 24.561263-5.8333 42.777533-12.997002 55.876874-21.593444 19.137318-12.689986 24.254247-27.426744 25.277633-37.558265 2.046772-21.491105-11.871277-42.879872-41.447132-63.347591-4.093544-2.865481-8.289426-5.526284-12.178293-7.880072 6.54967-10.029182 12.178293-20.877074 16.78353-31.213272 12.485309 13.713372 27.529083 23.3332 45.028983 20.672397 30.906256-4.809914 40.423746-44.005597 42.163502-52.295023C830.784729 600.522886 789.13292 536.663602 768.460524 509.850889zM772.861083 655.990406l-0.102339 0.307016c-0.921047 4.40056-3.172497 10.745553-5.321607 14.634419-4.093544-3.479512-12.178293-12.280632-23.742554-33.362383l-26.096342-47.485109-15.248451 51.988007c-4.298221 14.634419-20.672397 60.072756-38.888667 76.037577l-26.198681 22.923846 31.724965 14.429742c0.102339 0.102339 14.532081 6.652009 28.859484 16.271837 19.444333 13.09934 23.230861 21.18409 23.947232 23.128523-1.535079 2.046772-10.131521 11.154907-46.6664 19.853688l-0.204677 0.102339c-0.409354 0.102339-47.075755 10.745553-88.113532-15.862483l-17.602239-11.359584-0.409354-0.307016-1.43274 0.307016-20.263042 3.786528c-20.467719 3.888867-35.204477 1.842095-44.51729 0l-21.695783-4.298221L461.035379 798.241055c-39.912053 24.868279-87.192485 17.192884-90.979013 16.578853-36.125525-8.698781-44.619628-17.704577-46.154707-19.751349 0.71637-1.944433 4.502898-10.029182 23.947232-23.128523 14.327404-9.619828 28.654807-16.271837 28.757146-16.271837l31.827304-14.429742-26.301019-23.026184c-16.169498-14.225065-32.441335-54.137118-38.888667-76.037577l-15.248451-51.988007L301.898861 637.671797c-11.564261 21.18409-19.649011 29.88287-23.742554 33.362383-2.046772-3.684189-4.298221-9.722167-5.321607-14.634419l-0.102339-0.307016c-12.997002-60.584449 47.894463-128.127923 48.508495-128.741955l13.09934-14.225065-12.075954-15.043774c-4.093544-5.11693-8.084749-12.894663-2.251449-27.529083 4.298221-10.643214 11.461923-18.727963 12.075954-19.444333l6.037977-6.344993-0.102339-9.108135c-0.409354-65.189686 16.988207-115.94963 51.680991-150.744753 43.596242-43.698581 103.361983-50.555267 120.861883-51.578653l12.178293-0.102339 12.792325 0.102339c18.113932 1.125725 76.446932 7.982411 119.838497 51.271637 34.897462 34.795123 52.397362 85.555067 52.090346 151.051769l-0.204677 8.903458 6.242654 6.54967c0.614032 0.71637 7.777733 8.801119 12.075954 19.444333 5.8333 14.634419 1.944433 22.412153-2.251449 27.529083l-12.075954 15.043774 12.997002 14.225065C725.068959 527.862483 785.960424 595.508295 772.861083 655.990406z" p-id="3644"></path></svg>
